<mxfile host="app.diagrams.net" modified="2023-12-28T12:21:34.660Z" agent="Mozilla/5.0 (Windows NT 10.0; Win64; x64) AppleWebKit/537.36 (KHTML, like Gecko) Chrome/120.0.0.0 Safari/537.36" etag="Skyd4XQRkXi9rb40UFfA" version="22.1.15" type="github">
  <diagram name="第 1 页" id="e8PkdAkC_buC88wBoFo7">
    <mxGraphModel dx="7595" dy="6432" grid="1" gridSize="10" guides="1" tooltips="1" connect="1" arrows="1" fold="1" page="1" pageScale="1" pageWidth="2339" pageHeight="3300" math="0" shadow="0">
      <root>
        <mxCell id="0" />
        <mxCell id="1" parent="0" />
        <mxCell id="6gW5B9_wZC029rqFil08-63" value="" style="rounded=0;whiteSpace=wrap;html=1;fillColor=#d5e8d4;strokeColor=#82b366;" parent="1" vertex="1">
          <mxGeometry x="863.42" y="594" width="1120" height="596" as="geometry" />
        </mxCell>
        <mxCell id="6gW5B9_wZC029rqFil08-65" value="" style="rounded=0;whiteSpace=wrap;html=1;fillColor=#d5e8d4;strokeColor=#82b366;" parent="1" vertex="1">
          <mxGeometry x="863.42" y="190" width="1120" height="350" as="geometry" />
        </mxCell>
        <mxCell id="w58-n9etHen17CW85D_R-123" value="" style="rounded=0;whiteSpace=wrap;html=1;fillColor=#ffe6cc;strokeColor=#d79b00;" parent="1" vertex="1">
          <mxGeometry x="2270" y="190" width="750" height="570" as="geometry" />
        </mxCell>
        <mxCell id="w58-n9etHen17CW85D_R-119" value="" style="rounded=0;whiteSpace=wrap;html=1;fillColor=#f8cecc;strokeColor=#b85450;" parent="1" vertex="1">
          <mxGeometry x="-260" y="190" width="750" height="600" as="geometry" />
        </mxCell>
        <mxCell id="ve32dZPm960FdzRgtReY-1" value="" style="shape=mxgraph.cisco.storage.cloud;sketch=0;html=1;pointerEvents=1;dashed=0;fillColor=#036897;strokeColor=#ffffff;strokeWidth=2;verticalLabelPosition=bottom;verticalAlign=top;align=center;outlineConnect=0;" parent="1" vertex="1">
          <mxGeometry x="1070" y="-140" width="224.5" height="110" as="geometry" />
        </mxCell>
        <mxCell id="ve32dZPm960FdzRgtReY-2" value="" style="shape=mxgraph.cisco.switches.atm_fast_gigabit_etherswitch;sketch=0;html=1;pointerEvents=1;dashed=0;fillColor=#036897;strokeColor=#ffffff;strokeWidth=2;verticalLabelPosition=bottom;verticalAlign=top;align=center;outlineConnect=0;" parent="1" vertex="1">
          <mxGeometry x="1227.04" y="1014" width="104" height="104" as="geometry" />
        </mxCell>
        <mxCell id="ve32dZPm960FdzRgtReY-6" value="" style="shape=mxgraph.cisco.security.ios_firewall;sketch=0;html=1;pointerEvents=1;dashed=0;fillColor=#f3124a;strokeColor=#ffffff;strokeWidth=2;verticalLabelPosition=bottom;verticalAlign=top;align=center;outlineConnect=0;" parent="1" vertex="1">
          <mxGeometry x="1237.12" y="659.5" width="90" height="100" as="geometry" />
        </mxCell>
        <mxCell id="ve32dZPm960FdzRgtReY-11" value="" style="shape=mxgraph.cisco.security.ios_firewall;sketch=0;html=1;pointerEvents=1;dashed=0;fillColor=#f3124a;strokeColor=#ffffff;strokeWidth=2;verticalLabelPosition=bottom;verticalAlign=top;align=center;outlineConnect=0;" parent="1" vertex="1">
          <mxGeometry x="1534.12" y="660" width="90" height="100" as="geometry" />
        </mxCell>
        <mxCell id="6gW5B9_wZC029rqFil08-25" style="rounded=0;orthogonalLoop=1;jettySize=auto;html=1;exitX=0.75;exitY=0.91;exitDx=0;exitDy=0;exitPerimeter=0;endArrow=none;strokeWidth=3;endFill=0;entryX=0.5;entryY=0;entryDx=0;entryDy=0;entryPerimeter=0;" parent="1" source="ve32dZPm960FdzRgtReY-13" target="ve32dZPm960FdzRgtReY-2" edge="1">
          <mxGeometry relative="1" as="geometry">
            <mxPoint x="1280" y="1030" as="targetPoint" />
          </mxGeometry>
        </mxCell>
        <mxCell id="ve32dZPm960FdzRgtReY-13" value="" style="shape=mxgraph.cisco.security.firewall;sketch=0;html=1;pointerEvents=1;dashed=0;fillColor=#f3124a;strokeColor=#ffffff;strokeWidth=2;verticalLabelPosition=bottom;verticalAlign=top;align=center;outlineConnect=0;" parent="1" vertex="1">
          <mxGeometry x="272.8399999999999" y="554.5" width="70" height="93" as="geometry" />
        </mxCell>
        <mxCell id="w58-n9etHen17CW85D_R-3" value="" style="shape=mxgraph.cisco.people.androgenous_person;sketch=0;html=1;pointerEvents=1;dashed=0;fillColor=#036897;strokeColor=#ffffff;strokeWidth=2;verticalLabelPosition=bottom;verticalAlign=top;align=center;outlineConnect=0;" parent="1" vertex="1">
          <mxGeometry x="2521.26" y="348" width="69" height="82" as="geometry" />
        </mxCell>
        <mxCell id="w58-n9etHen17CW85D_R-4" value="" style="sketch=0;points=[[0.015,0.015,0],[0.985,0.015,0],[0.985,0.985,0],[0.015,0.985,0],[0.25,0,0],[0.5,0,0],[0.75,0,0],[1,0.25,0],[1,0.5,0],[1,0.75,0],[0.75,1,0],[0.5,1,0],[0.25,1,0],[0,0.75,0],[0,0.5,0],[0,0.25,0]];verticalLabelPosition=bottom;html=1;verticalAlign=top;aspect=fixed;align=center;pointerEvents=1;shape=mxgraph.cisco19.rect;prIcon=asa_5500;fillColor=#FAFAFA;strokeColor=#005073;" parent="1" vertex="1">
          <mxGeometry x="350.60999999999996" y="420" width="64" height="50" as="geometry" />
        </mxCell>
        <mxCell id="w58-n9etHen17CW85D_R-5" value="" style="sketch=0;points=[[0.5,0,0],[1,0.5,0],[0.5,1,0],[0,0.5,0],[0.145,0.145,0],[0.8555,0.145,0],[0.855,0.8555,0],[0.145,0.855,0]];verticalLabelPosition=bottom;html=1;verticalAlign=top;aspect=fixed;align=center;pointerEvents=1;shape=mxgraph.cisco19.lock;fillColor=#005073;strokeColor=none;" parent="1" vertex="1">
          <mxGeometry x="160.60999999999987" y="420" width="50" height="50" as="geometry" />
        </mxCell>
        <mxCell id="w58-n9etHen17CW85D_R-6" value="" style="sketch=0;points=[[0.015,0.015,0],[0.985,0.015,0],[0.985,0.985,0],[0.015,0.985,0],[0.25,0,0],[0.5,0,0],[0.75,0,0],[1,0.25,0],[1,0.5,0],[1,0.75,0],[0.75,1,0],[0.5,1,0],[0.25,1,0],[0,0.75,0],[0,0.5,0],[0,0.25,0]];verticalLabelPosition=bottom;html=1;verticalAlign=top;aspect=fixed;align=center;pointerEvents=1;shape=mxgraph.cisco19.rect;prIcon=ips_ids;fillColor=#FAFAFA;strokeColor=#005073;" parent="1" vertex="1">
          <mxGeometry x="70.26999999999995" y="420" width="64" height="50" as="geometry" />
        </mxCell>
        <mxCell id="w58-n9etHen17CW85D_R-7" value="" style="sketch=0;points=[[0.015,0.015,0],[0.985,0.015,0],[0.985,0.985,0],[0.015,0.985,0],[0.25,0,0],[0.5,0,0],[0.75,0,0],[1,0.25,0],[1,0.5,0],[1,0.75,0],[0.75,1,0],[0.5,1,0],[0.25,1,0],[0,0.75,0],[0,0.5,0],[0,0.25,0]];verticalLabelPosition=bottom;html=1;verticalAlign=top;aspect=fixed;align=center;pointerEvents=1;shape=mxgraph.cisco19.rect;prIcon=vpn_concentrator;fillColor=#FAFAFA;strokeColor=#005073;" parent="1" vertex="1">
          <mxGeometry x="-19.390000000000008" y="420" width="64" height="50" as="geometry" />
        </mxCell>
        <mxCell id="w58-n9etHen17CW85D_R-8" value="" style="sketch=0;points=[[0.015,0.015,0],[0.985,0.015,0],[0.985,0.985,0],[0.015,0.985,0],[0.25,0,0],[0.5,0,0],[0.75,0,0],[1,0.25,0],[1,0.5,0],[1,0.75,0],[0.75,1,0],[0.5,1,0],[0.25,1,0],[0,0.75,0],[0,0.5,0],[0,0.25,0]];verticalLabelPosition=bottom;html=1;verticalAlign=top;aspect=fixed;align=center;pointerEvents=1;shape=mxgraph.cisco19.rect;prIcon=cisco_security_manager;fillColor=#FAFAFA;strokeColor=#005073;" parent="1" vertex="1">
          <mxGeometry x="243.84999999999988" y="420" width="64" height="50" as="geometry" />
        </mxCell>
        <mxCell id="w58-n9etHen17CW85D_R-9" value="" style="sketch=0;points=[[0.015,0.015,0],[0.985,0.015,0],[0.985,0.985,0],[0.015,0.985,0],[0.25,0,0],[0.5,0,0],[0.75,0,0],[1,0.25,0],[1,0.5,0],[1,0.75,0],[0.75,1,0],[0.5,1,0],[0.25,1,0],[0,0.75,0],[0,0.5,0],[0,0.25,0]];verticalLabelPosition=bottom;html=1;verticalAlign=top;aspect=fixed;align=center;pointerEvents=1;shape=mxgraph.cisco19.rect;prIcon=anti_malware2;fillColor=#FAFAFA;strokeColor=#005073;" parent="1" vertex="1">
          <mxGeometry x="-99.39000000000001" y="420" width="50" height="50" as="geometry" />
        </mxCell>
        <mxCell id="w58-n9etHen17CW85D_R-14" value="" style="shape=mxgraph.cisco.switches.atm_switch;sketch=0;html=1;pointerEvents=1;dashed=0;fillColor=#036897;strokeColor=#ffffff;strokeWidth=2;verticalLabelPosition=bottom;verticalAlign=top;align=center;outlineConnect=0;" parent="1" vertex="1">
          <mxGeometry x="2740.0000000000005" y="519.5" width="54" height="56" as="geometry" />
        </mxCell>
        <mxCell id="w58-n9etHen17CW85D_R-17" value="" style="shape=mxgraph.cisco.switches.atm_switch;sketch=0;html=1;pointerEvents=1;dashed=0;fillColor=#036897;strokeColor=#ffffff;strokeWidth=2;verticalLabelPosition=bottom;verticalAlign=top;align=center;outlineConnect=0;" parent="1" vertex="1">
          <mxGeometry x="-23.580000000000013" y="573" width="54" height="56" as="geometry" />
        </mxCell>
        <mxCell id="6gW5B9_wZC029rqFil08-62" style="rounded=0;orthogonalLoop=1;jettySize=auto;html=1;exitX=0.5;exitY=1;exitDx=0;exitDy=0;exitPerimeter=0;endArrow=none;strokeWidth=3;endFill=0;" parent="1" source="w58-n9etHen17CW85D_R-24" edge="1">
          <mxGeometry relative="1" as="geometry">
            <mxPoint x="1580" y="1020" as="targetPoint" />
          </mxGeometry>
        </mxCell>
        <mxCell id="w58-n9etHen17CW85D_R-24" value="" style="shape=mxgraph.cisco.security.firewall;sketch=0;html=1;pointerEvents=1;dashed=0;fillColor=#f3124a;strokeColor=#ffffff;strokeWidth=2;verticalLabelPosition=bottom;verticalAlign=top;align=center;outlineConnect=0;" parent="1" vertex="1">
          <mxGeometry x="2443.76" y="501" width="70" height="93" as="geometry" />
        </mxCell>
        <mxCell id="w58-n9etHen17CW85D_R-28" value="" style="shape=mxgraph.cisco.people.androgenous_person;sketch=0;html=1;pointerEvents=1;dashed=0;fillColor=#036897;strokeColor=#ffffff;strokeWidth=2;verticalLabelPosition=bottom;verticalAlign=top;align=center;outlineConnect=0;" parent="1" vertex="1">
          <mxGeometry x="2655.88" y="348" width="69" height="82" as="geometry" />
        </mxCell>
        <mxCell id="w58-n9etHen17CW85D_R-29" value="" style="shape=mxgraph.cisco.switches.atm_fast_gigabit_etherswitch;sketch=0;html=1;pointerEvents=1;dashed=0;fillColor=#036897;strokeColor=#ffffff;strokeWidth=2;verticalLabelPosition=bottom;verticalAlign=top;align=center;outlineConnect=0;" parent="1" vertex="1">
          <mxGeometry x="1517.5" y="1014" width="104" height="104" as="geometry" />
        </mxCell>
        <mxCell id="w58-n9etHen17CW85D_R-36" style="rounded=0;orthogonalLoop=1;jettySize=auto;html=1;exitX=1;exitY=0.5;exitDx=0;exitDy=0;exitPerimeter=0;entryX=0;entryY=0.5;entryDx=0;entryDy=0;entryPerimeter=0;endArrow=none;strokeWidth=3;endFill=0;" parent="1" source="ve32dZPm960FdzRgtReY-6" target="ve32dZPm960FdzRgtReY-11" edge="1">
          <mxGeometry relative="1" as="geometry" />
        </mxCell>
        <mxCell id="w58-n9etHen17CW85D_R-39" style="rounded=0;orthogonalLoop=1;jettySize=auto;html=1;exitX=0.5;exitY=1;exitDx=0;exitDy=0;exitPerimeter=0;entryX=0.5;entryY=0;entryDx=0;entryDy=0;entryPerimeter=0;endArrow=none;strokeColor=#007FFF;strokeWidth=3;endFill=0;" parent="1" source="ve32dZPm960FdzRgtReY-6" target="w58-n9etHen17CW85D_R-29" edge="1">
          <mxGeometry relative="1" as="geometry">
            <mxPoint x="1282.6599999999999" y="884" as="sourcePoint" />
            <mxPoint x="1587.54" y="934" as="targetPoint" />
          </mxGeometry>
        </mxCell>
        <mxCell id="w58-n9etHen17CW85D_R-40" style="rounded=0;orthogonalLoop=1;jettySize=auto;html=1;exitX=0.5;exitY=0;exitDx=0;exitDy=0;exitPerimeter=0;endArrow=none;strokeColor=#007FFF;strokeWidth=3;endFill=0;" parent="1" source="ve32dZPm960FdzRgtReY-2" edge="1">
          <mxGeometry relative="1" as="geometry">
            <mxPoint x="1285.04" y="934" as="sourcePoint" />
            <mxPoint x="1579" y="760" as="targetPoint" />
          </mxGeometry>
        </mxCell>
        <mxCell id="w58-n9etHen17CW85D_R-41" style="rounded=0;orthogonalLoop=1;jettySize=auto;html=1;endArrow=none;strokeColor=#007FFF;strokeWidth=3;endFill=0;" parent="1" edge="1">
          <mxGeometry relative="1" as="geometry">
            <mxPoint x="1580" y="750" as="sourcePoint" />
            <mxPoint x="1570" y="1000" as="targetPoint" />
          </mxGeometry>
        </mxCell>
        <mxCell id="w58-n9etHen17CW85D_R-49" style="rounded=0;orthogonalLoop=1;jettySize=auto;html=1;exitX=1;exitY=0.5;exitDx=0;exitDy=0;exitPerimeter=0;entryX=0;entryY=0.5;entryDx=0;entryDy=0;entryPerimeter=0;endArrow=none;strokeColor=#ff33e4;strokeWidth=3;endFill=0;" parent="1" source="ve32dZPm960FdzRgtReY-2" target="w58-n9etHen17CW85D_R-29" edge="1">
          <mxGeometry relative="1" as="geometry" />
        </mxCell>
        <mxCell id="w58-n9etHen17CW85D_R-59" style="rounded=0;orthogonalLoop=1;jettySize=auto;html=1;endArrow=none;strokeWidth=3;endFill=0;exitX=1;exitY=0.5;exitDx=0;exitDy=0;exitPerimeter=0;" parent="1" source="w58-n9etHen17CW85D_R-17" target="ve32dZPm960FdzRgtReY-13" edge="1">
          <mxGeometry relative="1" as="geometry">
            <mxPoint x="310.17999999999995" y="414.5" as="sourcePoint" />
            <mxPoint x="310.17999999999995" y="564.5" as="targetPoint" />
          </mxGeometry>
        </mxCell>
        <mxCell id="w58-n9etHen17CW85D_R-124" value="&lt;font size=&quot;1&quot; style=&quot;&quot;&gt;&lt;b style=&quot;font-size: 56px;&quot;&gt;安全防护区域&lt;/b&gt;&lt;/font&gt;" style="text;strokeColor=none;align=center;fillColor=none;html=1;verticalAlign=middle;whiteSpace=wrap;rounded=0;" parent="1" vertex="1">
          <mxGeometry x="-49.39000000000003" y="270" width="363.62" height="60" as="geometry" />
        </mxCell>
        <mxCell id="w58-n9etHen17CW85D_R-125" value="&lt;font size=&quot;1&quot; style=&quot;&quot;&gt;&lt;b style=&quot;font-size: 56px;&quot;&gt;办公运维区域&lt;/b&gt;&lt;/font&gt;" style="text;strokeColor=none;align=center;fillColor=none;html=1;verticalAlign=middle;whiteSpace=wrap;rounded=0;" parent="1" vertex="1">
          <mxGeometry x="2449.38" y="240.5" width="363.62" height="60" as="geometry" />
        </mxCell>
        <mxCell id="w58-n9etHen17CW85D_R-133" value="&lt;font size=&quot;1&quot; style=&quot;&quot;&gt;&lt;b style=&quot;font-size: 40px;&quot;&gt;ISP01&lt;/b&gt;&lt;/font&gt;" style="text;strokeColor=none;align=center;fillColor=none;html=1;verticalAlign=middle;whiteSpace=wrap;rounded=0;" parent="1" vertex="1">
          <mxGeometry x="1130" y="-100" width="119.56" height="40" as="geometry" />
        </mxCell>
        <mxCell id="y1MQxlQRy56ASpq9fu1t-6" style="rounded=0;orthogonalLoop=1;jettySize=auto;html=1;endArrow=none;endFill=0;strokeWidth=3;" parent="1" source="6gW5B9_wZC029rqFil08-6" target="ve32dZPm960FdzRgtReY-1" edge="1">
          <mxGeometry relative="1" as="geometry">
            <mxPoint x="1278.92" y="50" as="sourcePoint" />
          </mxGeometry>
        </mxCell>
        <mxCell id="y1MQxlQRy56ASpq9fu1t-10" style="rounded=0;orthogonalLoop=1;jettySize=auto;html=1;exitX=0.5;exitY=0;exitDx=0;exitDy=0;exitPerimeter=0;endArrow=none;strokeWidth=3;endFill=0;entryX=0.5;entryY=0.99;entryDx=0;entryDy=0;entryPerimeter=0;" parent="1" source="6gW5B9_wZC029rqFil08-7" target="y1MQxlQRy56ASpq9fu1t-3" edge="1">
          <mxGeometry relative="1" as="geometry">
            <mxPoint x="1610.92" y="-130" as="targetPoint" />
            <mxPoint x="1580.500000000001" y="50" as="sourcePoint" />
          </mxGeometry>
        </mxCell>
        <mxCell id="y1MQxlQRy56ASpq9fu1t-3" value="" style="shape=mxgraph.cisco.storage.cloud;sketch=0;html=1;pointerEvents=1;dashed=0;fillColor=#036897;strokeColor=#ffffff;strokeWidth=2;verticalLabelPosition=bottom;verticalAlign=top;align=center;outlineConnect=0;" parent="1" vertex="1">
          <mxGeometry x="1550" y="-135" width="224.5" height="110" as="geometry" />
        </mxCell>
        <mxCell id="y1MQxlQRy56ASpq9fu1t-4" value="&lt;font size=&quot;1&quot; style=&quot;&quot;&gt;&lt;b style=&quot;font-size: 40px;&quot;&gt;ISP02&lt;/b&gt;&lt;/font&gt;" style="text;strokeColor=none;align=center;fillColor=none;html=1;verticalAlign=middle;whiteSpace=wrap;rounded=0;" parent="1" vertex="1">
          <mxGeometry x="1617.45" y="-100" width="119.56" height="40" as="geometry" />
        </mxCell>
        <mxCell id="y1MQxlQRy56ASpq9fu1t-9" style="rounded=0;orthogonalLoop=1;jettySize=auto;html=1;exitX=0.5;exitY=0;exitDx=0;exitDy=0;exitPerimeter=0;entryX=0.5;entryY=0.99;entryDx=0;entryDy=0;entryPerimeter=0;endArrow=none;strokeWidth=3;endFill=0;" parent="1" source="6gW5B9_wZC029rqFil08-6" target="y1MQxlQRy56ASpq9fu1t-3" edge="1">
          <mxGeometry relative="1" as="geometry">
            <mxPoint x="1278.92" y="50" as="sourcePoint" />
          </mxGeometry>
        </mxCell>
        <mxCell id="y1MQxlQRy56ASpq9fu1t-11" style="rounded=0;orthogonalLoop=1;jettySize=auto;html=1;exitX=0.5;exitY=0;exitDx=0;exitDy=0;exitPerimeter=0;endArrow=none;strokeWidth=3;endFill=0;" parent="1" source="6gW5B9_wZC029rqFil08-7" edge="1">
          <mxGeometry relative="1" as="geometry">
            <mxPoint x="1190" y="-30" as="targetPoint" />
            <mxPoint x="1580.500000000001" y="50" as="sourcePoint" />
          </mxGeometry>
        </mxCell>
        <mxCell id="y1MQxlQRy56ASpq9fu1t-14" value="" style="shape=mxgraph.cisco.people.androgenous_person;sketch=0;html=1;pointerEvents=1;dashed=0;fillColor=#036897;strokeColor=#ffffff;strokeWidth=2;verticalLabelPosition=bottom;verticalAlign=top;align=center;outlineConnect=0;" parent="1" vertex="1">
          <mxGeometry x="2791.26" y="348" width="69" height="82" as="geometry" />
        </mxCell>
        <mxCell id="y1MQxlQRy56ASpq9fu1t-15" value="" style="shape=mxgraph.cisco.people.androgenous_person;sketch=0;html=1;pointerEvents=1;dashed=0;fillColor=#036897;strokeColor=#ffffff;strokeWidth=2;verticalLabelPosition=bottom;verticalAlign=top;align=center;outlineConnect=0;" parent="1" vertex="1">
          <mxGeometry x="2380.38" y="348" width="69" height="82" as="geometry" />
        </mxCell>
        <mxCell id="y1MQxlQRy56ASpq9fu1t-20" value="&lt;font size=&quot;1&quot; style=&quot;&quot;&gt;&lt;b style=&quot;font-size: 40px;&quot;&gt;出口路由器&lt;/b&gt;&lt;/font&gt;" style="text;strokeColor=none;align=center;fillColor=none;html=1;verticalAlign=middle;whiteSpace=wrap;rounded=0;" parent="1" vertex="1">
          <mxGeometry x="1250.92" y="301" width="363.62" height="60" as="geometry" />
        </mxCell>
        <mxCell id="6gW5B9_wZC029rqFil08-6" value="" style="shape=mxgraph.cisco.routers.gigabit_switch_atm_tag_router;sketch=0;html=1;pointerEvents=1;dashed=0;fillColor=#036897;strokeColor=#ffffff;strokeWidth=2;verticalLabelPosition=bottom;verticalAlign=top;align=center;outlineConnect=0;" parent="1" vertex="1">
          <mxGeometry x="1220" y="340" width="126" height="98" as="geometry" />
        </mxCell>
        <mxCell id="6gW5B9_wZC029rqFil08-7" value="" style="shape=mxgraph.cisco.routers.gigabit_switch_atm_tag_router;sketch=0;html=1;pointerEvents=1;dashed=0;fillColor=#036897;strokeColor=#ffffff;strokeWidth=2;verticalLabelPosition=bottom;verticalAlign=top;align=center;outlineConnect=0;" parent="1" vertex="1">
          <mxGeometry x="1517.5" y="340" width="126" height="98" as="geometry" />
        </mxCell>
        <mxCell id="6gW5B9_wZC029rqFil08-9" style="rounded=0;orthogonalLoop=1;jettySize=auto;html=1;exitX=1;exitY=0.5;exitDx=0;exitDy=0;exitPerimeter=0;entryX=0;entryY=0.5;entryDx=0;entryDy=0;entryPerimeter=0;endArrow=none;strokeColor=#ff33e4;strokeWidth=3;endFill=0;" parent="1" source="6gW5B9_wZC029rqFil08-6" target="6gW5B9_wZC029rqFil08-7" edge="1">
          <mxGeometry relative="1" as="geometry" />
        </mxCell>
        <mxCell id="6gW5B9_wZC029rqFil08-10" style="edgeStyle=orthogonalEdgeStyle;rounded=0;orthogonalLoop=1;jettySize=auto;html=1;exitX=0.5;exitY=1;exitDx=0;exitDy=0;exitPerimeter=0;entryX=0.5;entryY=0;entryDx=0;entryDy=0;entryPerimeter=0;endArrow=none;strokeColor=#007FFF;strokeWidth=3;endFill=0;" parent="1" source="6gW5B9_wZC029rqFil08-6" target="ve32dZPm960FdzRgtReY-6" edge="1">
          <mxGeometry relative="1" as="geometry" />
        </mxCell>
        <mxCell id="6gW5B9_wZC029rqFil08-11" style="rounded=0;orthogonalLoop=1;jettySize=auto;html=1;exitX=0.5;exitY=1;exitDx=0;exitDy=0;exitPerimeter=0;entryX=0.5;entryY=0;entryDx=0;entryDy=0;entryPerimeter=0;endArrow=none;strokeColor=#007FFF;strokeWidth=3;endFill=0;" parent="1" source="6gW5B9_wZC029rqFil08-6" target="ve32dZPm960FdzRgtReY-11" edge="1">
          <mxGeometry relative="1" as="geometry" />
        </mxCell>
        <mxCell id="6gW5B9_wZC029rqFil08-12" style="rounded=0;orthogonalLoop=1;jettySize=auto;html=1;exitX=0.5;exitY=1;exitDx=0;exitDy=0;exitPerimeter=0;entryX=0.5;entryY=0;entryDx=0;entryDy=0;entryPerimeter=0;endArrow=none;strokeColor=#007FFF;strokeWidth=3;endFill=0;" parent="1" source="6gW5B9_wZC029rqFil08-7" target="ve32dZPm960FdzRgtReY-6" edge="1">
          <mxGeometry relative="1" as="geometry" />
        </mxCell>
        <mxCell id="6gW5B9_wZC029rqFil08-13" style="rounded=0;orthogonalLoop=1;jettySize=auto;html=1;exitX=0.5;exitY=1;exitDx=0;exitDy=0;exitPerimeter=0;entryX=0.5;entryY=0;entryDx=0;entryDy=0;entryPerimeter=0;endArrow=none;strokeColor=#007FFF;strokeWidth=3;endFill=0;" parent="1" source="6gW5B9_wZC029rqFil08-7" target="ve32dZPm960FdzRgtReY-11" edge="1">
          <mxGeometry relative="1" as="geometry" />
        </mxCell>
        <mxCell id="6gW5B9_wZC029rqFil08-22" style="rounded=0;orthogonalLoop=1;jettySize=auto;html=1;entryX=1;entryY=0.5;entryDx=0;entryDy=0;entryPerimeter=0;endArrow=none;strokeWidth=3;endFill=0;" parent="1" source="w58-n9etHen17CW85D_R-14" target="w58-n9etHen17CW85D_R-24" edge="1">
          <mxGeometry relative="1" as="geometry" />
        </mxCell>
        <mxCell id="6gW5B9_wZC029rqFil08-26" style="rounded=0;orthogonalLoop=1;jettySize=auto;html=1;exitX=0.75;exitY=0.91;exitDx=0;exitDy=0;exitPerimeter=0;endArrow=none;strokeWidth=3;endFill=0;" parent="1" source="ve32dZPm960FdzRgtReY-13" edge="1">
          <mxGeometry relative="1" as="geometry">
            <mxPoint x="1570" y="1010" as="targetPoint" />
          </mxGeometry>
        </mxCell>
        <mxCell id="6gW5B9_wZC029rqFil08-27" style="rounded=0;orthogonalLoop=1;jettySize=auto;html=1;entryX=0.5;entryY=1;entryDx=0;entryDy=0;entryPerimeter=0;endArrow=none;strokeWidth=3;endFill=0;" parent="1" target="w58-n9etHen17CW85D_R-24" edge="1">
          <mxGeometry relative="1" as="geometry">
            <mxPoint x="1283" y="1020" as="sourcePoint" />
          </mxGeometry>
        </mxCell>
        <mxCell id="6gW5B9_wZC029rqFil08-64" value="&lt;font style=&quot;font-size: 56px;&quot;&gt;&lt;b style=&quot;&quot;&gt;数据中心&lt;br&gt;网络核心区&lt;br&gt;&lt;/b&gt;&lt;/font&gt;" style="text;strokeColor=none;align=center;fillColor=none;html=1;verticalAlign=middle;whiteSpace=wrap;rounded=0;" parent="1" vertex="1">
          <mxGeometry x="863.42" y="630.5" width="363.62" height="129.5" as="geometry" />
        </mxCell>
        <mxCell id="6gW5B9_wZC029rqFil08-66" value="&lt;font style=&quot;font-size: 56px;&quot;&gt;&lt;b style=&quot;&quot;&gt;数据中心&lt;br&gt;网络出口区&lt;/b&gt;&lt;/font&gt;" style="text;strokeColor=none;align=center;fillColor=none;html=1;verticalAlign=middle;whiteSpace=wrap;rounded=0;" parent="1" vertex="1">
          <mxGeometry x="885.23" y="200" width="320" height="140" as="geometry" />
        </mxCell>
        <mxCell id="s4PAeA56a1w9hzO6Y_2n-11" value="" style="rounded=0;orthogonalLoop=1;jettySize=auto;html=1;exitX=0.5;exitY=1;exitDx=0;exitDy=0;exitPerimeter=0;endArrow=none;strokeColor=#007FFF;strokeWidth=3;endFill=0;" parent="1" source="ve32dZPm960FdzRgtReY-6" edge="1">
          <mxGeometry relative="1" as="geometry">
            <mxPoint x="1282" y="759" as="sourcePoint" />
            <mxPoint x="1280" y="1020" as="targetPoint" />
          </mxGeometry>
        </mxCell>
      </root>
    </mxGraphModel>
  </diagram>
</mxfile>
